<mxfile host="Electron" modified="2024-03-09T08:09:52.197Z" agent="Mozilla/5.0 (Windows NT 10.0; Win64; x64) AppleWebKit/537.36 (KHTML, like Gecko) draw.io/23.1.5 Chrome/120.0.6099.109 Electron/28.1.0 Safari/537.36" etag="C_4hCbWm_c-k9kTuSsmv" version="23.1.5" type="device">
  <diagram name="第 1 页" id="61Wi5KJB8rX5ySQ13xO8">
    <mxGraphModel dx="7390" dy="3376" grid="1" gridSize="10" guides="1" tooltips="1" connect="1" arrows="1" fold="1" page="1" pageScale="1" pageWidth="827" pageHeight="1169" math="0" shadow="0">
      <root>
        <mxCell id="0" />
        <mxCell id="1" parent="0" />
        <mxCell id="REwPJdgxEdcNGq4w5L6r-6" value="" style="rounded=1;whiteSpace=wrap;html=1;" vertex="1" parent="1">
          <mxGeometry x="-800" y="40" width="450" height="290" as="geometry" />
        </mxCell>
        <mxCell id="REwPJdgxEdcNGq4w5L6r-7" value="管理员功能" style="text;html=1;align=center;verticalAlign=middle;whiteSpace=wrap;rounded=0;" vertex="1" parent="1">
          <mxGeometry x="-630" y="50" width="70" height="30" as="geometry" />
        </mxCell>
        <mxCell id="REwPJdgxEdcNGq4w5L6r-8" value="审核" style="rounded=1;whiteSpace=wrap;html=1;" vertex="1" parent="1">
          <mxGeometry x="-740" y="100" width="120" height="60" as="geometry" />
        </mxCell>
        <mxCell id="REwPJdgxEdcNGq4w5L6r-9" value="行动" style="rounded=1;whiteSpace=wrap;html=1;" vertex="1" parent="1">
          <mxGeometry x="-530" y="100" width="120" height="60" as="geometry" />
        </mxCell>
        <mxCell id="REwPJdgxEdcNGq4w5L6r-10" value="报告" style="rounded=1;whiteSpace=wrap;html=1;" vertex="1" parent="1">
          <mxGeometry x="-740" y="180" width="120" height="60" as="geometry" />
        </mxCell>
        <mxCell id="REwPJdgxEdcNGq4w5L6r-12" value="危险日志" style="rounded=1;whiteSpace=wrap;html=1;" vertex="1" parent="1">
          <mxGeometry x="-530" y="180" width="120" height="60" as="geometry" />
        </mxCell>
        <mxCell id="REwPJdgxEdcNGq4w5L6r-13" value="" style="rounded=0;whiteSpace=wrap;html=1;" vertex="1" parent="1">
          <mxGeometry x="-280" y="10" width="740" height="400" as="geometry" />
        </mxCell>
        <mxCell id="REwPJdgxEdcNGq4w5L6r-14" value="导航栏" style="rounded=0;whiteSpace=wrap;html=1;" vertex="1" parent="1">
          <mxGeometry x="-260" y="20" width="140" height="60" as="geometry" />
        </mxCell>
        <mxCell id="REwPJdgxEdcNGq4w5L6r-20" value="审核栏" style="swimlane;fontStyle=0;childLayout=stackLayout;horizontal=1;startSize=26;fillColor=none;horizontalStack=0;resizeParent=1;resizeParentMax=0;resizeLast=0;collapsible=1;marginBottom=0;html=1;" vertex="1" parent="1">
          <mxGeometry x="-260" y="80" width="140" height="78" as="geometry" />
        </mxCell>
        <mxCell id="REwPJdgxEdcNGq4w5L6r-21" value="+新的审计" style="text;strokeColor=none;fillColor=none;align=left;verticalAlign=top;spacingLeft=4;spacingRight=4;overflow=hidden;rotatable=0;points=[[0,0.5],[1,0.5]];portConstraint=eastwest;whiteSpace=wrap;html=1;" vertex="1" parent="REwPJdgxEdcNGq4w5L6r-20">
          <mxGeometry y="26" width="140" height="26" as="geometry" />
        </mxCell>
        <mxCell id="REwPJdgxEdcNGq4w5L6r-22" value="+列表视图" style="text;strokeColor=none;fillColor=none;align=left;verticalAlign=top;spacingLeft=4;spacingRight=4;overflow=hidden;rotatable=0;points=[[0,0.5],[1,0.5]];portConstraint=eastwest;whiteSpace=wrap;html=1;" vertex="1" parent="REwPJdgxEdcNGq4w5L6r-20">
          <mxGeometry y="52" width="140" height="26" as="geometry" />
        </mxCell>
        <mxCell id="REwPJdgxEdcNGq4w5L6r-24" value="行动栏" style="swimlane;fontStyle=0;childLayout=stackLayout;horizontal=1;startSize=26;fillColor=none;horizontalStack=0;resizeParent=1;resizeParentMax=0;resizeLast=0;collapsible=1;marginBottom=0;html=1;" vertex="1" parent="1">
          <mxGeometry x="-260" y="158" width="140" height="78" as="geometry" />
        </mxCell>
        <mxCell id="REwPJdgxEdcNGq4w5L6r-25" value="+新发现" style="text;strokeColor=none;fillColor=none;align=left;verticalAlign=top;spacingLeft=4;spacingRight=4;overflow=hidden;rotatable=0;points=[[0,0.5],[1,0.5]];portConstraint=eastwest;whiteSpace=wrap;html=1;" vertex="1" parent="REwPJdgxEdcNGq4w5L6r-24">
          <mxGeometry y="26" width="140" height="26" as="geometry" />
        </mxCell>
        <mxCell id="REwPJdgxEdcNGq4w5L6r-26" value="+列表视图" style="text;strokeColor=none;fillColor=none;align=left;verticalAlign=top;spacingLeft=4;spacingRight=4;overflow=hidden;rotatable=0;points=[[0,0.5],[1,0.5]];portConstraint=eastwest;whiteSpace=wrap;html=1;" vertex="1" parent="REwPJdgxEdcNGq4w5L6r-24">
          <mxGeometry y="52" width="140" height="26" as="geometry" />
        </mxCell>
        <mxCell id="REwPJdgxEdcNGq4w5L6r-27" value="报告栏" style="swimlane;fontStyle=0;childLayout=stackLayout;horizontal=1;startSize=26;fillColor=none;horizontalStack=0;resizeParent=1;resizeParentMax=0;resizeLast=0;collapsible=1;marginBottom=0;html=1;" vertex="1" parent="1">
          <mxGeometry x="-260" y="236" width="140" height="78" as="geometry" />
        </mxCell>
        <mxCell id="REwPJdgxEdcNGq4w5L6r-28" value="+新报告&lt;span style=&quot;white-space: pre;&quot;&gt;&#x9;&lt;/span&gt;" style="text;strokeColor=none;fillColor=none;align=left;verticalAlign=top;spacingLeft=4;spacingRight=4;overflow=hidden;rotatable=0;points=[[0,0.5],[1,0.5]];portConstraint=eastwest;whiteSpace=wrap;html=1;" vertex="1" parent="REwPJdgxEdcNGq4w5L6r-27">
          <mxGeometry y="26" width="140" height="26" as="geometry" />
        </mxCell>
        <mxCell id="REwPJdgxEdcNGq4w5L6r-29" value="+列表视图" style="text;strokeColor=none;fillColor=none;align=left;verticalAlign=top;spacingLeft=4;spacingRight=4;overflow=hidden;rotatable=0;points=[[0,0.5],[1,0.5]];portConstraint=eastwest;whiteSpace=wrap;html=1;" vertex="1" parent="REwPJdgxEdcNGq4w5L6r-27">
          <mxGeometry y="52" width="140" height="26" as="geometry" />
        </mxCell>
        <mxCell id="REwPJdgxEdcNGq4w5L6r-30" value="危险日志" style="swimlane;fontStyle=0;childLayout=stackLayout;horizontal=1;startSize=26;fillColor=none;horizontalStack=0;resizeParent=1;resizeParentMax=0;resizeLast=0;collapsible=1;marginBottom=0;html=1;" vertex="1" parent="1">
          <mxGeometry x="-260" y="314" width="140" height="78" as="geometry" />
        </mxCell>
        <mxCell id="REwPJdgxEdcNGq4w5L6r-31" value="+新危害" style="text;strokeColor=none;fillColor=none;align=left;verticalAlign=top;spacingLeft=4;spacingRight=4;overflow=hidden;rotatable=0;points=[[0,0.5],[1,0.5]];portConstraint=eastwest;whiteSpace=wrap;html=1;" vertex="1" parent="REwPJdgxEdcNGq4w5L6r-30">
          <mxGeometry y="26" width="140" height="26" as="geometry" />
        </mxCell>
        <mxCell id="REwPJdgxEdcNGq4w5L6r-32" value="+列表视图" style="text;strokeColor=none;fillColor=none;align=left;verticalAlign=top;spacingLeft=4;spacingRight=4;overflow=hidden;rotatable=0;points=[[0,0.5],[1,0.5]];portConstraint=eastwest;whiteSpace=wrap;html=1;" vertex="1" parent="REwPJdgxEdcNGq4w5L6r-30">
          <mxGeometry y="52" width="140" height="26" as="geometry" />
        </mxCell>
        <mxCell id="REwPJdgxEdcNGq4w5L6r-33" value="" style="rounded=0;whiteSpace=wrap;html=1;" vertex="1" parent="1">
          <mxGeometry x="-70" y="82" width="510" height="270" as="geometry" />
        </mxCell>
        <mxCell id="REwPJdgxEdcNGq4w5L6r-34" value="" style="rounded=0;whiteSpace=wrap;html=1;" vertex="1" parent="1">
          <mxGeometry x="-60" y="92" width="100" height="30" as="geometry" />
        </mxCell>
        <mxCell id="REwPJdgxEdcNGq4w5L6r-35" value="type类型(下拉框）" style="text;html=1;align=center;verticalAlign=middle;whiteSpace=wrap;rounded=0;" vertex="1" parent="1">
          <mxGeometry x="-60" y="92" width="110" height="30" as="geometry" />
        </mxCell>
        <mxCell id="REwPJdgxEdcNGq4w5L6r-36" value="" style="rounded=0;whiteSpace=wrap;html=1;" vertex="1" parent="1">
          <mxGeometry x="-60" y="152" width="100" height="30" as="geometry" />
        </mxCell>
        <mxCell id="REwPJdgxEdcNGq4w5L6r-37" value="审核开始日期Startdate" style="rounded=0;whiteSpace=wrap;html=1;" vertex="1" parent="1">
          <mxGeometry x="-60" y="202" width="100" height="30" as="geometry" />
        </mxCell>
        <mxCell id="REwPJdgxEdcNGq4w5L6r-38" value="company审计公司" style="text;html=1;align=center;verticalAlign=middle;whiteSpace=wrap;rounded=0;" vertex="1" parent="1">
          <mxGeometry x="-60" y="152" width="100" height="30" as="geometry" />
        </mxCell>
        <mxCell id="REwPJdgxEdcNGq4w5L6r-39" value="审核项目类型scope" style="rounded=0;whiteSpace=wrap;html=1;" vertex="1" parent="1">
          <mxGeometry x="-60" y="252" width="100" height="30" as="geometry" />
        </mxCell>
        <mxCell id="REwPJdgxEdcNGq4w5L6r-40" value="&lt;font style=&quot;font-size: 14px;&quot;&gt;&lt;b&gt;新的审计表单&lt;/b&gt;&lt;/font&gt;" style="text;html=1;align=center;verticalAlign=middle;whiteSpace=wrap;rounded=0;" vertex="1" parent="1">
          <mxGeometry x="94" y="50" width="86" height="30" as="geometry" />
        </mxCell>
        <mxCell id="REwPJdgxEdcNGq4w5L6r-41" value="审核主任Lead Auditor" style="rounded=0;whiteSpace=wrap;html=1;" vertex="1" parent="1">
          <mxGeometry x="120" y="92" width="100" height="30" as="geometry" />
        </mxCell>
        <mxCell id="REwPJdgxEdcNGq4w5L6r-42" value="审核员Auditor" style="rounded=0;whiteSpace=wrap;html=1;" vertex="1" parent="1">
          <mxGeometry x="120" y="152" width="100" height="30" as="geometry" />
        </mxCell>
        <mxCell id="REwPJdgxEdcNGq4w5L6r-43" value="审核结束日期Enddate" style="rounded=0;whiteSpace=wrap;html=1;" vertex="1" parent="1">
          <mxGeometry x="120" y="202" width="100" height="30" as="geometry" />
        </mxCell>
        <mxCell id="REwPJdgxEdcNGq4w5L6r-44" value="被审核部门department" style="rounded=0;whiteSpace=wrap;html=1;" vertex="1" parent="1">
          <mxGeometry x="120" y="252" width="100" height="30" as="geometry" />
        </mxCell>
        <mxCell id="REwPJdgxEdcNGq4w5L6r-46" value="通知部门Todepartment" style="rounded=0;whiteSpace=wrap;html=1;" vertex="1" parent="1">
          <mxGeometry x="-60" y="302" width="100" height="30" as="geometry" />
        </mxCell>
        <mxCell id="REwPJdgxEdcNGq4w5L6r-47" value="提交表单" style="ellipse;whiteSpace=wrap;html=1;aspect=fixed;" vertex="1" parent="1">
          <mxGeometry x="290" y="292" width="50" height="50" as="geometry" />
        </mxCell>
        <mxCell id="REwPJdgxEdcNGq4w5L6r-48" value="提交后生成审批号" style="text;html=1;align=center;verticalAlign=middle;whiteSpace=wrap;rounded=0;" vertex="1" parent="1">
          <mxGeometry x="340" y="302" width="60" height="30" as="geometry" />
        </mxCell>
        <mxCell id="REwPJdgxEdcNGq4w5L6r-49" value="" style="rounded=0;whiteSpace=wrap;html=1;" vertex="1" parent="1">
          <mxGeometry x="120" y="302" width="100" height="30" as="geometry" />
        </mxCell>
        <mxCell id="REwPJdgxEdcNGq4w5L6r-50" value="项目清单List" style="text;html=1;align=center;verticalAlign=middle;whiteSpace=wrap;rounded=0;" vertex="1" parent="1">
          <mxGeometry x="130" y="302" width="60" height="30" as="geometry" />
        </mxCell>
        <mxCell id="REwPJdgxEdcNGq4w5L6r-51" value="planType计划类型" style="rounded=0;whiteSpace=wrap;html=1;" vertex="1" parent="1">
          <mxGeometry x="260" y="92" width="100" height="30" as="geometry" />
        </mxCell>
        <mxCell id="REwPJdgxEdcNGq4w5L6r-52" value="" style="endArrow=classic;html=1;rounded=0;" edge="1" parent="1">
          <mxGeometry width="50" height="50" relative="1" as="geometry">
            <mxPoint x="310" y="92" as="sourcePoint" />
            <mxPoint x="360" y="42" as="targetPoint" />
          </mxGeometry>
        </mxCell>
        <mxCell id="REwPJdgxEdcNGq4w5L6r-53" value="下拉选择框" style="text;html=1;align=center;verticalAlign=middle;whiteSpace=wrap;rounded=0;" vertex="1" parent="1">
          <mxGeometry x="310" y="12" width="100" height="30" as="geometry" />
        </mxCell>
        <mxCell id="REwPJdgxEdcNGq4w5L6r-54" value="" style="endArrow=classic;html=1;rounded=0;" edge="1" parent="1">
          <mxGeometry width="50" height="50" relative="1" as="geometry">
            <mxPoint x="220" y="282" as="sourcePoint" />
            <mxPoint x="270" y="232" as="targetPoint" />
          </mxGeometry>
        </mxCell>
        <mxCell id="REwPJdgxEdcNGq4w5L6r-55" value="&lt;span style=&quot;color: rgb(0, 0, 0); font-family: Helvetica; font-size: 12px; font-style: normal; font-variant-ligatures: normal; font-variant-caps: normal; font-weight: 400; letter-spacing: normal; orphans: 2; text-align: center; text-indent: 0px; text-transform: none; widows: 2; word-spacing: 0px; -webkit-text-stroke-width: 0px; background-color: rgb(251, 251, 251); text-decoration-thickness: initial; text-decoration-style: initial; text-decoration-color: initial; float: none; display: inline !important;&quot;&gt;下拉选择框&lt;/span&gt;" style="text;whiteSpace=wrap;html=1;" vertex="1" parent="1">
          <mxGeometry x="260" y="212" width="90" height="40" as="geometry" />
        </mxCell>
        <mxCell id="REwPJdgxEdcNGq4w5L6r-56" value="" style="endArrow=classic;html=1;rounded=0;" edge="1" parent="1">
          <mxGeometry width="50" height="50" relative="1" as="geometry">
            <mxPoint x="190" y="92" as="sourcePoint" />
            <mxPoint x="240" y="42" as="targetPoint" />
          </mxGeometry>
        </mxCell>
        <mxCell id="REwPJdgxEdcNGq4w5L6r-57" value="弹出审核人员表单" style="text;html=1;align=center;verticalAlign=middle;resizable=0;points=[];autosize=1;strokeColor=none;fillColor=none;" vertex="1" parent="1">
          <mxGeometry x="180" y="10" width="120" height="30" as="geometry" />
        </mxCell>
        <mxCell id="REwPJdgxEdcNGq4w5L6r-58" value="" style="endArrow=classic;html=1;rounded=0;" edge="1" parent="1" target="REwPJdgxEdcNGq4w5L6r-55">
          <mxGeometry width="50" height="50" relative="1" as="geometry">
            <mxPoint x="220" y="322" as="sourcePoint" />
            <mxPoint x="270" y="272" as="targetPoint" />
          </mxGeometry>
        </mxCell>
        <mxCell id="REwPJdgxEdcNGq4w5L6r-59" value="下拉选择框" style="text;html=1;align=center;verticalAlign=middle;whiteSpace=wrap;rounded=0;" vertex="1" parent="1">
          <mxGeometry x="-55" y="370" width="90" height="30" as="geometry" />
        </mxCell>
        <mxCell id="REwPJdgxEdcNGq4w5L6r-60" value="" style="endArrow=classic;html=1;rounded=0;entryX=0.5;entryY=0;entryDx=0;entryDy=0;" edge="1" parent="1" target="REwPJdgxEdcNGq4w5L6r-59">
          <mxGeometry width="50" height="50" relative="1" as="geometry">
            <mxPoint x="-15" y="332" as="sourcePoint" />
            <mxPoint x="35" y="282" as="targetPoint" />
          </mxGeometry>
        </mxCell>
        <mxCell id="REwPJdgxEdcNGq4w5L6r-63" value="" style="endArrow=classic;html=1;rounded=0;entryX=1;entryY=0.5;entryDx=0;entryDy=0;edgeStyle=entityRelationEdgeStyle;" edge="1" parent="1" target="REwPJdgxEdcNGq4w5L6r-59">
          <mxGeometry width="50" height="50" relative="1" as="geometry">
            <mxPoint x="40" y="270" as="sourcePoint" />
            <mxPoint x="90" y="220" as="targetPoint" />
          </mxGeometry>
        </mxCell>
        <mxCell id="REwPJdgxEdcNGq4w5L6r-108" value="" style="rounded=0;whiteSpace=wrap;html=1;" vertex="1" parent="1">
          <mxGeometry x="-280" y="490" width="1050" height="400" as="geometry" />
        </mxCell>
        <mxCell id="REwPJdgxEdcNGq4w5L6r-109" value="导航栏" style="rounded=0;whiteSpace=wrap;html=1;" vertex="1" parent="1">
          <mxGeometry x="-280" y="490" width="140" height="60" as="geometry" />
        </mxCell>
        <mxCell id="REwPJdgxEdcNGq4w5L6r-110" value="审核栏" style="swimlane;fontStyle=0;childLayout=stackLayout;horizontal=1;startSize=26;fillColor=none;horizontalStack=0;resizeParent=1;resizeParentMax=0;resizeLast=0;collapsible=1;marginBottom=0;html=1;" vertex="1" parent="1">
          <mxGeometry x="-280" y="550" width="140" height="78" as="geometry">
            <mxRectangle x="-280" y="550" width="80" height="30" as="alternateBounds" />
          </mxGeometry>
        </mxCell>
        <mxCell id="REwPJdgxEdcNGq4w5L6r-111" value="+新的审计" style="text;strokeColor=none;fillColor=none;align=left;verticalAlign=top;spacingLeft=4;spacingRight=4;overflow=hidden;rotatable=0;points=[[0,0.5],[1,0.5]];portConstraint=eastwest;whiteSpace=wrap;html=1;" vertex="1" parent="REwPJdgxEdcNGq4w5L6r-110">
          <mxGeometry y="26" width="140" height="26" as="geometry" />
        </mxCell>
        <mxCell id="REwPJdgxEdcNGq4w5L6r-112" value="+列表视图" style="text;strokeColor=none;fillColor=none;align=left;verticalAlign=top;spacingLeft=4;spacingRight=4;overflow=hidden;rotatable=0;points=[[0,0.5],[1,0.5]];portConstraint=eastwest;whiteSpace=wrap;html=1;" vertex="1" parent="REwPJdgxEdcNGq4w5L6r-110">
          <mxGeometry y="52" width="140" height="26" as="geometry" />
        </mxCell>
        <mxCell id="REwPJdgxEdcNGq4w5L6r-113" value="行动栏" style="swimlane;fontStyle=0;childLayout=stackLayout;horizontal=1;startSize=26;fillColor=none;horizontalStack=0;resizeParent=1;resizeParentMax=0;resizeLast=0;collapsible=1;marginBottom=0;html=1;" vertex="1" parent="1">
          <mxGeometry x="-280" y="628" width="140" height="78" as="geometry" />
        </mxCell>
        <mxCell id="REwPJdgxEdcNGq4w5L6r-114" value="+新发现" style="text;strokeColor=none;fillColor=none;align=left;verticalAlign=top;spacingLeft=4;spacingRight=4;overflow=hidden;rotatable=0;points=[[0,0.5],[1,0.5]];portConstraint=eastwest;whiteSpace=wrap;html=1;" vertex="1" parent="REwPJdgxEdcNGq4w5L6r-113">
          <mxGeometry y="26" width="140" height="26" as="geometry" />
        </mxCell>
        <mxCell id="REwPJdgxEdcNGq4w5L6r-115" value="+列表视图" style="text;strokeColor=none;fillColor=none;align=left;verticalAlign=top;spacingLeft=4;spacingRight=4;overflow=hidden;rotatable=0;points=[[0,0.5],[1,0.5]];portConstraint=eastwest;whiteSpace=wrap;html=1;" vertex="1" parent="REwPJdgxEdcNGq4w5L6r-113">
          <mxGeometry y="52" width="140" height="26" as="geometry" />
        </mxCell>
        <mxCell id="REwPJdgxEdcNGq4w5L6r-116" value="报告栏" style="swimlane;fontStyle=0;childLayout=stackLayout;horizontal=1;startSize=26;fillColor=none;horizontalStack=0;resizeParent=1;resizeParentMax=0;resizeLast=0;collapsible=1;marginBottom=0;html=1;" vertex="1" parent="1">
          <mxGeometry x="-280" y="706" width="140" height="78" as="geometry" />
        </mxCell>
        <mxCell id="REwPJdgxEdcNGq4w5L6r-117" value="+新报告&lt;span style=&quot;white-space: pre;&quot;&gt;&#x9;&lt;/span&gt;" style="text;strokeColor=none;fillColor=none;align=left;verticalAlign=top;spacingLeft=4;spacingRight=4;overflow=hidden;rotatable=0;points=[[0,0.5],[1,0.5]];portConstraint=eastwest;whiteSpace=wrap;html=1;" vertex="1" parent="REwPJdgxEdcNGq4w5L6r-116">
          <mxGeometry y="26" width="140" height="26" as="geometry" />
        </mxCell>
        <mxCell id="REwPJdgxEdcNGq4w5L6r-118" value="+列表视图" style="text;strokeColor=none;fillColor=none;align=left;verticalAlign=top;spacingLeft=4;spacingRight=4;overflow=hidden;rotatable=0;points=[[0,0.5],[1,0.5]];portConstraint=eastwest;whiteSpace=wrap;html=1;" vertex="1" parent="REwPJdgxEdcNGq4w5L6r-116">
          <mxGeometry y="52" width="140" height="26" as="geometry" />
        </mxCell>
        <mxCell id="REwPJdgxEdcNGq4w5L6r-119" value="危险日志" style="swimlane;fontStyle=0;childLayout=stackLayout;horizontal=1;startSize=26;fillColor=none;horizontalStack=0;resizeParent=1;resizeParentMax=0;resizeLast=0;collapsible=1;marginBottom=0;html=1;" vertex="1" parent="1">
          <mxGeometry x="-280" y="784" width="140" height="78" as="geometry" />
        </mxCell>
        <mxCell id="REwPJdgxEdcNGq4w5L6r-120" value="+新危害" style="text;strokeColor=none;fillColor=none;align=left;verticalAlign=top;spacingLeft=4;spacingRight=4;overflow=hidden;rotatable=0;points=[[0,0.5],[1,0.5]];portConstraint=eastwest;whiteSpace=wrap;html=1;" vertex="1" parent="REwPJdgxEdcNGq4w5L6r-119">
          <mxGeometry y="26" width="140" height="26" as="geometry" />
        </mxCell>
        <mxCell id="REwPJdgxEdcNGq4w5L6r-121" value="+列表视图" style="text;strokeColor=none;fillColor=none;align=left;verticalAlign=top;spacingLeft=4;spacingRight=4;overflow=hidden;rotatable=0;points=[[0,0.5],[1,0.5]];portConstraint=eastwest;whiteSpace=wrap;html=1;" vertex="1" parent="REwPJdgxEdcNGq4w5L6r-119">
          <mxGeometry y="52" width="140" height="26" as="geometry" />
        </mxCell>
        <mxCell id="REwPJdgxEdcNGq4w5L6r-122" value="" style="rounded=0;whiteSpace=wrap;html=1;" vertex="1" parent="1">
          <mxGeometry x="-130" y="505" width="870" height="160" as="geometry" />
        </mxCell>
        <mxCell id="REwPJdgxEdcNGq4w5L6r-123" value="&lt;font style=&quot;font-size: 14px;&quot;&gt;&lt;b&gt;列表视图表单&lt;/b&gt;&lt;/font&gt;" style="text;html=1;align=center;verticalAlign=middle;whiteSpace=wrap;rounded=0;" vertex="1" parent="1">
          <mxGeometry x="155" y="450" width="90" height="30" as="geometry" />
        </mxCell>
        <mxCell id="REwPJdgxEdcNGq4w5L6r-124" value="" style="rounded=0;whiteSpace=wrap;html=1;" vertex="1" parent="1">
          <mxGeometry x="-120" y="515" width="100" height="30" as="geometry" />
        </mxCell>
        <mxCell id="REwPJdgxEdcNGq4w5L6r-125" value="Approval number审批号" style="text;html=1;align=center;verticalAlign=middle;whiteSpace=wrap;rounded=0;" vertex="1" parent="1">
          <mxGeometry x="-120" y="520" width="100" height="20" as="geometry" />
        </mxCell>
        <mxCell id="REwPJdgxEdcNGq4w5L6r-126" value="" style="rounded=0;whiteSpace=wrap;html=1;" vertex="1" parent="1">
          <mxGeometry x="20" y="515" width="300" height="30" as="geometry" />
        </mxCell>
        <mxCell id="REwPJdgxEdcNGq4w5L6r-127" value="content内容：" style="text;html=1;align=center;verticalAlign=middle;whiteSpace=wrap;rounded=0;" vertex="1" parent="1">
          <mxGeometry x="20" y="515" width="80" height="30" as="geometry" />
        </mxCell>
        <mxCell id="REwPJdgxEdcNGq4w5L6r-128" value="company审计公司，scope审计项目类型" style="text;html=1;align=center;verticalAlign=middle;whiteSpace=wrap;rounded=0;" vertex="1" parent="1">
          <mxGeometry x="85" y="515" width="230" height="30" as="geometry" />
        </mxCell>
        <mxCell id="REwPJdgxEdcNGq4w5L6r-129" value="预定日期Startdate" style="rounded=0;whiteSpace=wrap;html=1;" vertex="1" parent="1">
          <mxGeometry x="340" y="515" width="120" height="30" as="geometry" />
        </mxCell>
        <mxCell id="REwPJdgxEdcNGq4w5L6r-130" value="审核人Auditor" style="rounded=0;whiteSpace=wrap;html=1;" vertex="1" parent="1">
          <mxGeometry x="490" y="515" width="110" height="30" as="geometry" />
        </mxCell>
        <mxCell id="REwPJdgxEdcNGq4w5L6r-131" value="planType计划类型" style="rounded=0;whiteSpace=wrap;html=1;" vertex="1" parent="1">
          <mxGeometry x="620" y="515" width="110" height="30" as="geometry" />
        </mxCell>
        <mxCell id="REwPJdgxEdcNGq4w5L6r-132" value="点击审批号跳转到查看审计栏" style="text;html=1;align=center;verticalAlign=middle;whiteSpace=wrap;rounded=0;" vertex="1" parent="1">
          <mxGeometry x="-105" y="600" width="210" height="30" as="geometry" />
        </mxCell>
        <mxCell id="REwPJdgxEdcNGq4w5L6r-133" value="" style="endArrow=classic;html=1;rounded=0;" edge="1" parent="1">
          <mxGeometry width="50" height="50" relative="1" as="geometry">
            <mxPoint x="-30" y="530" as="sourcePoint" />
            <mxPoint x="30" y="600" as="targetPoint" />
          </mxGeometry>
        </mxCell>
        <mxCell id="REwPJdgxEdcNGq4w5L6r-134" value="" style="rounded=0;whiteSpace=wrap;html=1;" vertex="1" parent="1">
          <mxGeometry x="-280" y="960" width="1050" height="400" as="geometry" />
        </mxCell>
        <mxCell id="REwPJdgxEdcNGq4w5L6r-135" value="导航栏" style="rounded=0;whiteSpace=wrap;html=1;" vertex="1" parent="1">
          <mxGeometry x="-280" y="960" width="140" height="60" as="geometry" />
        </mxCell>
        <mxCell id="REwPJdgxEdcNGq4w5L6r-136" value="审核栏" style="swimlane;fontStyle=0;childLayout=stackLayout;horizontal=1;startSize=26;fillColor=none;horizontalStack=0;resizeParent=1;resizeParentMax=0;resizeLast=0;collapsible=1;marginBottom=0;html=1;" vertex="1" parent="1">
          <mxGeometry x="-280" y="1020" width="140" height="78" as="geometry">
            <mxRectangle x="-280" y="550" width="80" height="30" as="alternateBounds" />
          </mxGeometry>
        </mxCell>
        <mxCell id="REwPJdgxEdcNGq4w5L6r-137" value="+新的审计" style="text;strokeColor=none;fillColor=none;align=left;verticalAlign=top;spacingLeft=4;spacingRight=4;overflow=hidden;rotatable=0;points=[[0,0.5],[1,0.5]];portConstraint=eastwest;whiteSpace=wrap;html=1;" vertex="1" parent="REwPJdgxEdcNGq4w5L6r-136">
          <mxGeometry y="26" width="140" height="26" as="geometry" />
        </mxCell>
        <mxCell id="REwPJdgxEdcNGq4w5L6r-138" value="+列表视图" style="text;strokeColor=none;fillColor=none;align=left;verticalAlign=top;spacingLeft=4;spacingRight=4;overflow=hidden;rotatable=0;points=[[0,0.5],[1,0.5]];portConstraint=eastwest;whiteSpace=wrap;html=1;" vertex="1" parent="REwPJdgxEdcNGq4w5L6r-136">
          <mxGeometry y="52" width="140" height="26" as="geometry" />
        </mxCell>
        <mxCell id="REwPJdgxEdcNGq4w5L6r-139" value="行动栏" style="swimlane;fontStyle=0;childLayout=stackLayout;horizontal=1;startSize=26;fillColor=none;horizontalStack=0;resizeParent=1;resizeParentMax=0;resizeLast=0;collapsible=1;marginBottom=0;html=1;" vertex="1" parent="1">
          <mxGeometry x="-280" y="1098" width="140" height="78" as="geometry" />
        </mxCell>
        <mxCell id="REwPJdgxEdcNGq4w5L6r-140" value="+新发现" style="text;strokeColor=none;fillColor=none;align=left;verticalAlign=top;spacingLeft=4;spacingRight=4;overflow=hidden;rotatable=0;points=[[0,0.5],[1,0.5]];portConstraint=eastwest;whiteSpace=wrap;html=1;" vertex="1" parent="REwPJdgxEdcNGq4w5L6r-139">
          <mxGeometry y="26" width="140" height="26" as="geometry" />
        </mxCell>
        <mxCell id="REwPJdgxEdcNGq4w5L6r-141" value="+列表视图" style="text;strokeColor=none;fillColor=none;align=left;verticalAlign=top;spacingLeft=4;spacingRight=4;overflow=hidden;rotatable=0;points=[[0,0.5],[1,0.5]];portConstraint=eastwest;whiteSpace=wrap;html=1;" vertex="1" parent="REwPJdgxEdcNGq4w5L6r-139">
          <mxGeometry y="52" width="140" height="26" as="geometry" />
        </mxCell>
        <mxCell id="REwPJdgxEdcNGq4w5L6r-142" value="报告栏" style="swimlane;fontStyle=0;childLayout=stackLayout;horizontal=1;startSize=26;fillColor=none;horizontalStack=0;resizeParent=1;resizeParentMax=0;resizeLast=0;collapsible=1;marginBottom=0;html=1;" vertex="1" parent="1">
          <mxGeometry x="-280" y="1176" width="140" height="78" as="geometry" />
        </mxCell>
        <mxCell id="REwPJdgxEdcNGq4w5L6r-143" value="+新报告&lt;span style=&quot;white-space: pre;&quot;&gt;&#x9;&lt;/span&gt;" style="text;strokeColor=none;fillColor=none;align=left;verticalAlign=top;spacingLeft=4;spacingRight=4;overflow=hidden;rotatable=0;points=[[0,0.5],[1,0.5]];portConstraint=eastwest;whiteSpace=wrap;html=1;" vertex="1" parent="REwPJdgxEdcNGq4w5L6r-142">
          <mxGeometry y="26" width="140" height="26" as="geometry" />
        </mxCell>
        <mxCell id="REwPJdgxEdcNGq4w5L6r-144" value="+列表视图" style="text;strokeColor=none;fillColor=none;align=left;verticalAlign=top;spacingLeft=4;spacingRight=4;overflow=hidden;rotatable=0;points=[[0,0.5],[1,0.5]];portConstraint=eastwest;whiteSpace=wrap;html=1;" vertex="1" parent="REwPJdgxEdcNGq4w5L6r-142">
          <mxGeometry y="52" width="140" height="26" as="geometry" />
        </mxCell>
        <mxCell id="REwPJdgxEdcNGq4w5L6r-145" value="危险日志" style="swimlane;fontStyle=0;childLayout=stackLayout;horizontal=1;startSize=26;fillColor=none;horizontalStack=0;resizeParent=1;resizeParentMax=0;resizeLast=0;collapsible=1;marginBottom=0;html=1;" vertex="1" parent="1">
          <mxGeometry x="-280" y="1254" width="140" height="78" as="geometry" />
        </mxCell>
        <mxCell id="REwPJdgxEdcNGq4w5L6r-146" value="+新危害" style="text;strokeColor=none;fillColor=none;align=left;verticalAlign=top;spacingLeft=4;spacingRight=4;overflow=hidden;rotatable=0;points=[[0,0.5],[1,0.5]];portConstraint=eastwest;whiteSpace=wrap;html=1;" vertex="1" parent="REwPJdgxEdcNGq4w5L6r-145">
          <mxGeometry y="26" width="140" height="26" as="geometry" />
        </mxCell>
        <mxCell id="REwPJdgxEdcNGq4w5L6r-147" value="+列表视图" style="text;strokeColor=none;fillColor=none;align=left;verticalAlign=top;spacingLeft=4;spacingRight=4;overflow=hidden;rotatable=0;points=[[0,0.5],[1,0.5]];portConstraint=eastwest;whiteSpace=wrap;html=1;" vertex="1" parent="REwPJdgxEdcNGq4w5L6r-145">
          <mxGeometry y="52" width="140" height="26" as="geometry" />
        </mxCell>
        <mxCell id="REwPJdgxEdcNGq4w5L6r-149" value="&lt;b style=&quot;border-color: var(--border-color); font-size: 14px;&quot;&gt;查看审计栏&lt;/b&gt;" style="text;html=1;align=center;verticalAlign=middle;whiteSpace=wrap;rounded=0;" vertex="1" parent="1">
          <mxGeometry x="50" y="975" width="90" height="30" as="geometry" />
        </mxCell>
        <mxCell id="REwPJdgxEdcNGq4w5L6r-160" value="" style="rounded=0;whiteSpace=wrap;html=1;" vertex="1" parent="1">
          <mxGeometry x="-75" y="1020" width="330" height="270" as="geometry" />
        </mxCell>
        <mxCell id="REwPJdgxEdcNGq4w5L6r-162" value="" style="rounded=0;whiteSpace=wrap;html=1;" vertex="1" parent="1">
          <mxGeometry x="-30" y="1045" width="100" height="30" as="geometry" />
        </mxCell>
        <mxCell id="REwPJdgxEdcNGq4w5L6r-163" value="" style="rounded=0;whiteSpace=wrap;html=1;" vertex="1" parent="1">
          <mxGeometry x="-30" y="1145" width="100" height="30" as="geometry" />
        </mxCell>
        <mxCell id="REwPJdgxEdcNGq4w5L6r-164" value="scope审核类型" style="rounded=0;whiteSpace=wrap;html=1;" vertex="1" parent="1">
          <mxGeometry x="-30" y="1095" width="100" height="30" as="geometry" />
        </mxCell>
        <mxCell id="REwPJdgxEdcNGq4w5L6r-165" value="" style="rounded=0;whiteSpace=wrap;html=1;" vertex="1" parent="1">
          <mxGeometry x="110" y="1145" width="100" height="30" as="geometry" />
        </mxCell>
        <mxCell id="REwPJdgxEdcNGq4w5L6r-166" value="Auditor审核员" style="rounded=0;whiteSpace=wrap;html=1;" vertex="1" parent="1">
          <mxGeometry x="110" y="1095" width="100" height="30" as="geometry" />
        </mxCell>
        <mxCell id="REwPJdgxEdcNGq4w5L6r-167" value="" style="rounded=0;whiteSpace=wrap;html=1;" vertex="1" parent="1">
          <mxGeometry x="-30" y="1195" width="100" height="30" as="geometry" />
        </mxCell>
        <mxCell id="REwPJdgxEdcNGq4w5L6r-168" value="Lead Auditor审核主任" style="rounded=0;whiteSpace=wrap;html=1;" vertex="1" parent="1">
          <mxGeometry x="110" y="1045" width="100" height="30" as="geometry" />
        </mxCell>
        <mxCell id="REwPJdgxEdcNGq4w5L6r-169" value="" style="rounded=0;whiteSpace=wrap;html=1;" vertex="1" parent="1">
          <mxGeometry x="110" y="1195" width="100" height="30" as="geometry" />
        </mxCell>
        <mxCell id="REwPJdgxEdcNGq4w5L6r-170" value="审计清单project list" style="rounded=0;whiteSpace=wrap;html=1;" vertex="1" parent="1">
          <mxGeometry x="110" y="1235" width="100" height="30" as="geometry" />
        </mxCell>
        <mxCell id="REwPJdgxEdcNGq4w5L6r-171" value="Company审核公司" style="rounded=0;whiteSpace=wrap;html=1;" vertex="1" parent="1">
          <mxGeometry x="-30" y="1235" width="100" height="30" as="geometry" />
        </mxCell>
        <mxCell id="REwPJdgxEdcNGq4w5L6r-172" value="&lt;div style=&quot;text-indent: -24px;&quot;&gt;&lt;span style=&quot;background-color: initial;&quot;&gt;Approval number审批号&lt;/span&gt;&lt;/div&gt;" style="text;html=1;align=center;verticalAlign=middle;whiteSpace=wrap;rounded=0;" vertex="1" parent="1">
          <mxGeometry x="-10" y="1030" width="80" height="55" as="geometry" />
        </mxCell>
        <mxCell id="REwPJdgxEdcNGq4w5L6r-173" value="planType 计划类型" style="text;html=1;align=center;verticalAlign=middle;whiteSpace=wrap;rounded=0;" vertex="1" parent="1">
          <mxGeometry x="-10" y="1145" width="60" height="30" as="geometry" />
        </mxCell>
        <mxCell id="REwPJdgxEdcNGq4w5L6r-174" value="Department被审核部门" style="text;html=1;align=center;verticalAlign=middle;whiteSpace=wrap;rounded=0;" vertex="1" parent="1">
          <mxGeometry x="130" y="1145" width="60" height="30" as="geometry" />
        </mxCell>
        <mxCell id="REwPJdgxEdcNGq4w5L6r-175" value="EndDay预定结束日期" style="text;html=1;align=center;verticalAlign=middle;whiteSpace=wrap;rounded=0;" vertex="1" parent="1">
          <mxGeometry x="125" y="1195" width="70" height="30" as="geometry" />
        </mxCell>
        <mxCell id="REwPJdgxEdcNGq4w5L6r-176" value="StartDay预定开始日期" style="text;html=1;align=center;verticalAlign=middle;whiteSpace=wrap;rounded=0;" vertex="1" parent="1">
          <mxGeometry x="-15" y="1195" width="70" height="30" as="geometry" />
        </mxCell>
        <mxCell id="REwPJdgxEdcNGq4w5L6r-178" value="" style="rounded=1;whiteSpace=wrap;html=1;" vertex="1" parent="1">
          <mxGeometry x="-1208" y="490" width="870" height="1220" as="geometry" />
        </mxCell>
        <mxCell id="REwPJdgxEdcNGq4w5L6r-179" value="操作流程" style="text;html=1;align=center;verticalAlign=middle;whiteSpace=wrap;rounded=0;fontSize=17;fontStyle=1" vertex="1" parent="1">
          <mxGeometry x="-898" y="520" width="310" height="30" as="geometry" />
        </mxCell>
        <mxCell id="REwPJdgxEdcNGq4w5L6r-195" style="edgeStyle=orthogonalEdgeStyle;rounded=0;orthogonalLoop=1;jettySize=auto;html=1;exitX=0.5;exitY=1;exitDx=0;exitDy=0;entryX=0.5;entryY=0;entryDx=0;entryDy=0;fontSize=17;" edge="1" parent="1" source="REwPJdgxEdcNGq4w5L6r-196" target="REwPJdgxEdcNGq4w5L6r-199">
          <mxGeometry relative="1" as="geometry" />
        </mxCell>
        <mxCell id="REwPJdgxEdcNGq4w5L6r-196" value="开始" style="rounded=1;whiteSpace=wrap;html=1;fontSize=17;" vertex="1" parent="1">
          <mxGeometry x="-1003" y="530" width="120" height="60" as="geometry" />
        </mxCell>
        <mxCell id="REwPJdgxEdcNGq4w5L6r-197" style="edgeStyle=orthogonalEdgeStyle;rounded=0;orthogonalLoop=1;jettySize=auto;html=1;exitX=0.5;exitY=1;exitDx=0;exitDy=0;fontSize=17;" edge="1" parent="1" source="REwPJdgxEdcNGq4w5L6r-199">
          <mxGeometry relative="1" as="geometry">
            <mxPoint x="-943" y="860" as="targetPoint" />
            <Array as="points">
              <mxPoint x="-943" y="860" />
              <mxPoint x="-942" y="860" />
            </Array>
          </mxGeometry>
        </mxCell>
        <mxCell id="REwPJdgxEdcNGq4w5L6r-198" style="edgeStyle=orthogonalEdgeStyle;rounded=0;orthogonalLoop=1;jettySize=auto;html=1;exitX=1;exitY=0.5;exitDx=0;exitDy=0;fontSize=17;" edge="1" parent="1" source="REwPJdgxEdcNGq4w5L6r-199" target="REwPJdgxEdcNGq4w5L6r-221">
          <mxGeometry relative="1" as="geometry">
            <mxPoint x="-523" y="940" as="targetPoint" />
          </mxGeometry>
        </mxCell>
        <mxCell id="REwPJdgxEdcNGq4w5L6r-199" value="是否是管理员" style="rhombus;whiteSpace=wrap;html=1;fontSize=17;" vertex="1" parent="1">
          <mxGeometry x="-1028" y="680" width="170" height="80" as="geometry" />
        </mxCell>
        <mxCell id="REwPJdgxEdcNGq4w5L6r-200" value="登录" style="text;html=1;align=center;verticalAlign=middle;resizable=0;points=[];autosize=1;strokeColor=none;fillColor=none;fontSize=17;" vertex="1" parent="1">
          <mxGeometry x="-953" y="608" width="60" height="30" as="geometry" />
        </mxCell>
        <mxCell id="REwPJdgxEdcNGq4w5L6r-201" value="是" style="text;html=1;align=center;verticalAlign=middle;resizable=0;points=[];autosize=1;strokeColor=none;fillColor=none;fontSize=17;" vertex="1" parent="1">
          <mxGeometry x="-943" y="778" width="40" height="30" as="geometry" />
        </mxCell>
        <mxCell id="REwPJdgxEdcNGq4w5L6r-202" value="否" style="text;html=1;align=center;verticalAlign=middle;resizable=0;points=[];autosize=1;strokeColor=none;fillColor=none;fontSize=17;" vertex="1" parent="1">
          <mxGeometry x="-743" y="680" width="40" height="30" as="geometry" />
        </mxCell>
        <mxCell id="REwPJdgxEdcNGq4w5L6r-203" style="edgeStyle=orthogonalEdgeStyle;rounded=0;orthogonalLoop=1;jettySize=auto;html=1;exitX=0.5;exitY=1;exitDx=0;exitDy=0;entryX=0.638;entryY=-0.033;entryDx=0;entryDy=0;entryPerimeter=0;fontSize=16;" edge="1" parent="1" source="REwPJdgxEdcNGq4w5L6r-204" target="REwPJdgxEdcNGq4w5L6r-219">
          <mxGeometry relative="1" as="geometry">
            <mxPoint x="-943" y="1000" as="targetPoint" />
          </mxGeometry>
        </mxCell>
        <mxCell id="REwPJdgxEdcNGq4w5L6r-204" value="管理员界面" style="rounded=1;whiteSpace=wrap;html=1;fontSize=16;" vertex="1" parent="1">
          <mxGeometry x="-1003" y="860" width="120" height="60" as="geometry" />
        </mxCell>
        <mxCell id="REwPJdgxEdcNGq4w5L6r-205" style="edgeStyle=orthogonalEdgeStyle;rounded=0;orthogonalLoop=1;jettySize=auto;html=1;exitX=0;exitY=0.5;exitDx=0;exitDy=0;fontSize=17;" edge="1" parent="1" source="REwPJdgxEdcNGq4w5L6r-218">
          <mxGeometry relative="1" as="geometry">
            <mxPoint x="-1103" y="1342" as="targetPoint" />
            <mxPoint x="-1033" y="1075" as="sourcePoint" />
          </mxGeometry>
        </mxCell>
        <mxCell id="REwPJdgxEdcNGq4w5L6r-206" style="edgeStyle=orthogonalEdgeStyle;rounded=0;orthogonalLoop=1;jettySize=auto;html=1;entryX=0;entryY=0.5;entryDx=0;entryDy=0;fontSize=17;" edge="1" parent="1" source="REwPJdgxEdcNGq4w5L6r-207" target="REwPJdgxEdcNGq4w5L6r-213">
          <mxGeometry relative="1" as="geometry" />
        </mxCell>
        <mxCell id="REwPJdgxEdcNGq4w5L6r-207" value="输入信息 ，可以提交新审计表单" style="rounded=0;whiteSpace=wrap;html=1;fontSize=17;" vertex="1" parent="1">
          <mxGeometry x="-1173" y="1330" width="130" height="80" as="geometry" />
        </mxCell>
        <mxCell id="REwPJdgxEdcNGq4w5L6r-208" value="提交表单" style="text;html=1;align=center;verticalAlign=middle;whiteSpace=wrap;rounded=0;fontSize=17;" vertex="1" parent="1">
          <mxGeometry x="-1028" y="1345" width="88" height="30" as="geometry" />
        </mxCell>
        <mxCell id="REwPJdgxEdcNGq4w5L6r-211" value="点击2列表视图" style="text;html=1;align=center;verticalAlign=middle;resizable=0;points=[];autosize=1;strokeColor=none;fillColor=none;fontSize=17;" vertex="1" parent="1">
          <mxGeometry x="-788" y="1140" width="130" height="30" as="geometry" />
        </mxCell>
        <mxCell id="REwPJdgxEdcNGq4w5L6r-212" style="edgeStyle=orthogonalEdgeStyle;rounded=0;orthogonalLoop=1;jettySize=auto;html=1;exitX=0.5;exitY=1;exitDx=0;exitDy=0;entryX=0.5;entryY=0;entryDx=0;entryDy=0;fontSize=17;" edge="1" parent="1" source="REwPJdgxEdcNGq4w5L6r-213" target="REwPJdgxEdcNGq4w5L6r-215">
          <mxGeometry relative="1" as="geometry" />
        </mxCell>
        <mxCell id="REwPJdgxEdcNGq4w5L6r-213" value="列表视图" style="rounded=1;whiteSpace=wrap;html=1;fontSize=17;" vertex="1" parent="1">
          <mxGeometry x="-908" y="1310" width="205" height="120" as="geometry" />
        </mxCell>
        <mxCell id="REwPJdgxEdcNGq4w5L6r-214" style="edgeStyle=orthogonalEdgeStyle;rounded=0;orthogonalLoop=1;jettySize=auto;html=1;exitX=1;exitY=0.5;exitDx=0;exitDy=0;entryX=0.551;entryY=-0.008;entryDx=0;entryDy=0;entryPerimeter=0;fontSize=17;" edge="1" parent="1" source="REwPJdgxEdcNGq4w5L6r-218" target="REwPJdgxEdcNGq4w5L6r-213">
          <mxGeometry relative="1" as="geometry">
            <mxPoint x="-853" y="1075" as="sourcePoint" />
          </mxGeometry>
        </mxCell>
        <mxCell id="REwPJdgxEdcNGq4w5L6r-215" value="审计栏" style="rounded=1;whiteSpace=wrap;html=1;fontSize=17;" vertex="1" parent="1">
          <mxGeometry x="-865.5" y="1559" width="120" height="60" as="geometry" />
        </mxCell>
        <mxCell id="REwPJdgxEdcNGq4w5L6r-216" value="点击审批号" style="text;html=1;align=center;verticalAlign=middle;resizable=0;points=[];autosize=1;strokeColor=none;fillColor=none;fontSize=17;" vertex="1" parent="1">
          <mxGeometry x="-828" y="1468" width="110" height="30" as="geometry" />
        </mxCell>
        <mxCell id="REwPJdgxEdcNGq4w5L6r-217" value="跳转到" style="text;html=1;align=center;verticalAlign=middle;resizable=0;points=[];autosize=1;strokeColor=none;fillColor=none;fontSize=17;" vertex="1" parent="1">
          <mxGeometry x="-1038" y="1375" width="70" height="30" as="geometry" />
        </mxCell>
        <mxCell id="REwPJdgxEdcNGq4w5L6r-218" value="" style="rounded=1;whiteSpace=wrap;html=1;fontSize=16;" vertex="1" parent="1">
          <mxGeometry x="-1015.5" y="1037.5" width="145" height="65" as="geometry" />
        </mxCell>
        <mxCell id="REwPJdgxEdcNGq4w5L6r-219" value="1.新审计" style="text;html=1;align=center;verticalAlign=middle;whiteSpace=wrap;rounded=0;fontSize=16;" vertex="1" parent="1">
          <mxGeometry x="-993" y="1035" width="80" height="30" as="geometry" />
        </mxCell>
        <mxCell id="REwPJdgxEdcNGq4w5L6r-220" value="2.列表视图" style="text;html=1;align=center;verticalAlign=middle;whiteSpace=wrap;rounded=0;fontSize=16;" vertex="1" parent="1">
          <mxGeometry x="-998" y="1060" width="90" height="40" as="geometry" />
        </mxCell>
        <mxCell id="REwPJdgxEdcNGq4w5L6r-221" value="&lt;font style=&quot;font-size: 17px;&quot;&gt;用户界面&lt;/font&gt;" style="rounded=0;whiteSpace=wrap;html=1;fontSize=17;" vertex="1" parent="1">
          <mxGeometry x="-500" y="675" width="140" height="90" as="geometry" />
        </mxCell>
        <mxCell id="REwPJdgxEdcNGq4w5L6r-223" value="跳转到" style="text;html=1;align=center;verticalAlign=middle;resizable=0;points=[];autosize=1;strokeColor=none;fillColor=none;fontSize=17;" vertex="1" parent="1">
          <mxGeometry x="-818" y="1508" width="70" height="30" as="geometry" />
        </mxCell>
        <mxCell id="REwPJdgxEdcNGq4w5L6r-225" value="点击审核栏下拉框" style="text;html=1;align=center;verticalAlign=middle;whiteSpace=wrap;rounded=0;fontSize=16;" vertex="1" parent="1">
          <mxGeometry x="-953" y="945" width="145" height="30" as="geometry" />
        </mxCell>
        <mxCell id="REwPJdgxEdcNGq4w5L6r-226" value="" style="rounded=1;whiteSpace=wrap;html=1;" vertex="1" parent="1">
          <mxGeometry x="-1181" y="1810" width="1126" height="503" as="geometry" />
        </mxCell>
        <mxCell id="REwPJdgxEdcNGq4w5L6r-227" value="&lt;font style=&quot;font-size: 27px;&quot;&gt;&lt;b&gt;用户功能分类&lt;/b&gt;&lt;/font&gt;" style="text;html=1;align=center;verticalAlign=middle;whiteSpace=wrap;rounded=0;horizontal=1;" vertex="1" parent="1">
          <mxGeometry x="-1141" y="1922" width="60" height="258" as="geometry" />
        </mxCell>
        <mxCell id="REwPJdgxEdcNGq4w5L6r-228" value="" style="rounded=0;whiteSpace=wrap;html=1;" vertex="1" parent="1">
          <mxGeometry x="-1035" y="1841" width="860" height="218" as="geometry" />
        </mxCell>
        <mxCell id="REwPJdgxEdcNGq4w5L6r-229" value="" style="rounded=0;whiteSpace=wrap;html=1;" vertex="1" parent="1">
          <mxGeometry x="-1031" y="2085" width="856" height="197.5" as="geometry" />
        </mxCell>
        <mxCell id="REwPJdgxEdcNGq4w5L6r-231" value="&lt;font style=&quot;font-size: 16px;&quot;&gt;&lt;b&gt;管理员&lt;/b&gt;&lt;/font&gt;" style="shape=umlActor;verticalLabelPosition=bottom;verticalAlign=top;html=1;" vertex="1" parent="1">
          <mxGeometry x="-981" y="1867" width="30" height="60" as="geometry" />
        </mxCell>
        <mxCell id="REwPJdgxEdcNGq4w5L6r-233" value="登入" style="ellipse;whiteSpace=wrap;html=1;fontSize=14;fontStyle=1" vertex="1" parent="1">
          <mxGeometry x="-871" y="1855" width="120" height="80" as="geometry" />
        </mxCell>
        <mxCell id="REwPJdgxEdcNGq4w5L6r-235" value="查看视图列表" style="ellipse;whiteSpace=wrap;html=1;fontSize=14;fontStyle=1" vertex="1" parent="1">
          <mxGeometry x="-708" y="1857" width="120" height="80" as="geometry" />
        </mxCell>
        <mxCell id="REwPJdgxEdcNGq4w5L6r-236" value="查看审计" style="ellipse;whiteSpace=wrap;html=1;fontSize=14;fontStyle=1" vertex="1" parent="1">
          <mxGeometry x="-871" y="1977" width="120" height="80" as="geometry" />
        </mxCell>
        <mxCell id="REwPJdgxEdcNGq4w5L6r-237" value="新增审计" style="ellipse;whiteSpace=wrap;html=1;fontSize=14;fontStyle=1" vertex="1" parent="1">
          <mxGeometry x="-701" y="1967" width="120" height="80" as="geometry" />
        </mxCell>
        <mxCell id="REwPJdgxEdcNGq4w5L6r-238" value="普通用户" style="shape=umlActor;verticalLabelPosition=bottom;verticalAlign=top;html=1;outlineConnect=0;fontSize=16;fontStyle=1" vertex="1" parent="1">
          <mxGeometry x="-981" y="2125" width="30" height="60" as="geometry" />
        </mxCell>
        <mxCell id="REwPJdgxEdcNGq4w5L6r-239" value="登入" style="ellipse;whiteSpace=wrap;html=1;fontSize=14;fontStyle=1" vertex="1" parent="1">
          <mxGeometry x="-861" y="2100" width="120" height="80" as="geometry" />
        </mxCell>
        <mxCell id="REwPJdgxEdcNGq4w5L6r-240" value="查看视图列表" style="ellipse;whiteSpace=wrap;html=1;fontSize=14;fontStyle=1" vertex="1" parent="1">
          <mxGeometry x="-701" y="2100" width="120" height="80" as="geometry" />
        </mxCell>
        <mxCell id="REwPJdgxEdcNGq4w5L6r-241" value="查看审计" style="ellipse;whiteSpace=wrap;html=1;fontSize=14;fontStyle=1" vertex="1" parent="1">
          <mxGeometry x="-861" y="2197" width="120" height="80" as="geometry" />
        </mxCell>
      </root>
    </mxGraphModel>
  </diagram>
</mxfile>
